PathFileType	4	(X/Y/Z)	E:/New_biomech_experiments/2 Elbow flexion/Shreyas_pp_27_6_24_t02.trc	
DataRate	CameraRate	NumFrames	NumMarkers	Units	OrigDataRate	OrigDataStartFrame	OrigNumFrames	
120.00	120.00	126	3	m	120.00	2214	5903	
Frame#	Time	r_humerus_epicondyle			r_acromion			r_radius_styloid			
		X1	Y1	Z1	X2	Y2	Z2	X3	Y3	Z3	

2214	18.442	-0.00227	0.48675	0.27350	-0.01841	0.81533	0.21938	0.13606	0.67459	0.24618 
2215	18.450	-0.00223	0.48673	0.27353	-0.01865	0.81527	0.21944	0.13570	0.67482	0.24613 
2216	18.458	-0.00219	0.48671	0.27356	-0.01889	0.81522	0.21949	0.13534	0.67505	0.24610 
2217	18.467	-0.00215	0.48670	0.27359	-0.01912	0.81516	0.21954	0.13498	0.67528	0.24607 
2218	18.475	-0.00212	0.48668	0.27362	-0.01934	0.81510	0.21959	0.13462	0.67550	0.24605 
2219	18.483	-0.00209	0.48667	0.27365	-0.01954	0.81505	0.21962	0.13427	0.67571	0.24605 
2220	18.492	-0.00208	0.48666	0.27367	-0.01973	0.81500	0.21965	0.13393	0.67592	0.24605 
2221	18.500	-0.00206	0.48666	0.27369	-0.01990	0.81496	0.21968	0.13360	0.67613	0.24607 
2222	18.508	-0.00205	0.48666	0.27371	-0.02006	0.81492	0.21969	0.13327	0.67632	0.24609 
2223	18.517	-0.00204	0.48667	0.27373	-0.02020	0.81488	0.21970	0.13296	0.67650	0.24610 
2224	18.525	-0.00204	0.48669	0.27375	-0.02033	0.81485	0.21970	0.13267	0.67667	0.24612 
2225	18.533	-0.00203	0.48671	0.27377	-0.02044	0.81483	0.21969	0.13239	0.67683	0.24613 
2226	18.542	-0.00202	0.48673	0.27379	-0.02054	0.81481	0.21968	0.13214	0.67698	0.24614 
2227	18.550	-0.00201	0.48676	0.27382	-0.02063	0.81479	0.21966	0.13192	0.67713	0.24614 
2228	18.558	-0.00200	0.48679	0.27384	-0.02071	0.81478	0.21964	0.13171	0.67726	0.24613 
2229	18.567	-0.00200	0.48683	0.27386	-0.02078	0.81478	0.21961	0.13152	0.67739	0.24612 
2230	18.575	-0.00198	0.48687	0.27388	-0.02085	0.81479	0.21958	0.13135	0.67752	0.24609 
2231	18.583	-0.00197	0.48691	0.27391	-0.02091	0.81479	0.21955	0.13119	0.67764	0.24605 
2232	18.592	-0.00195	0.48696	0.27393	-0.02096	0.81480	0.21951	0.13105	0.67775	0.24601 
2233	18.600	-0.00192	0.48701	0.27396	-0.02100	0.81481	0.21948	0.13092	0.67787	0.24595 
2234	18.608	-0.00188	0.48705	0.27400	-0.02105	0.81482	0.21944	0.13081	0.67798	0.24589 
2235	18.617	-0.00183	0.48710	0.27403	-0.02109	0.81484	0.21940	0.13070	0.67808	0.24582 
2236	18.625	-0.00178	0.48713	0.27407	-0.02113	0.81485	0.21936	0.13059	0.67819	0.24574 
2237	18.633	-0.00171	0.48717	0.27411	-0.02117	0.81484	0.21933	0.13049	0.67829	0.24565 
2238	18.642	-0.00163	0.48719	0.27415	-0.02121	0.81483	0.21932	0.13038	0.67838	0.24556 
2239	18.650	-0.00154	0.48721	0.27420	-0.02125	0.81480	0.21931	0.13027	0.67848	0.24547 
2240	18.658	-0.00145	0.48722	0.27424	-0.02130	0.81476	0.21931	0.13015	0.67859	0.24536 
2241	18.667	-0.00135	0.48723	0.27429	-0.02136	0.81472	0.21931	0.13002	0.67869	0.24526 
2242	18.675	-0.00124	0.48723	0.27434	-0.02142	0.81466	0.21933	0.12988	0.67881	0.24516 
2243	18.683	-0.00111	0.48722	0.27439	-0.02150	0.81459	0.21935	0.12973	0.67893	0.24506 
2244	18.692	-0.00098	0.48721	0.27444	-0.02158	0.81452	0.21938	0.12956	0.67905	0.24495 
2245	18.700	-0.00084	0.48720	0.27448	-0.02168	0.81445	0.21942	0.12937	0.67919	0.24485 
2246	18.708	-0.00069	0.48718	0.27452	-0.02179	0.81438	0.21947	0.12918	0.67933	0.24475 
2247	18.717	-0.00053	0.48717	0.27456	-0.02192	0.81431	0.21951	0.12896	0.67949	0.24465 
2248	18.725	-0.00036	0.48715	0.27459	-0.02205	0.81424	0.21957	0.12873	0.67966	0.24456 
2249	18.733	-0.00018	0.48714	0.27461	-0.02220	0.81418	0.21962	0.12848	0.67984	0.24447 
2250	18.742	0.00001	0.48712	0.27463	-0.02235	0.81411	0.21968	0.12821	0.68003	0.24437 
2251	18.750	0.00020	0.48711	0.27463	-0.02252	0.81405	0.21974	0.12793	0.68023	0.24427 
2252	18.758	0.00039	0.48709	0.27463	-0.02269	0.81398	0.21979	0.12763	0.68044	0.24418 
2253	18.767	0.00059	0.48708	0.27462	-0.02288	0.81392	0.21985	0.12733	0.68067	0.24407 
2254	18.775	0.00078	0.48707	0.27460	-0.02307	0.81386	0.21990	0.12702	0.68091	0.24397 
2255	18.783	0.00099	0.48706	0.27458	-0.02327	0.81380	0.21996	0.12669	0.68117	0.24386 
2256	18.792	0.00119	0.48705	0.27454	-0.02348	0.81374	0.22001	0.12636	0.68144	0.24375 
2257	18.800	0.00140	0.48704	0.27450	-0.02369	0.81368	0.22005	0.12603	0.68172	0.24362 
2258	18.808	0.00160	0.48703	0.27445	-0.02390	0.81362	0.22010	0.12568	0.68200	0.24349 
2259	18.817	0.00181	0.48701	0.27438	-0.02411	0.81356	0.22013	0.12533	0.68230	0.24335 
2260	18.825	0.00201	0.48699	0.27430	-0.02431	0.81350	0.22017	0.12497	0.68259	0.24321 
2261	18.833	0.00220	0.48695	0.27419	-0.02450	0.81344	0.22020	0.12461	0.68289	0.24306 
2262	18.842	0.00238	0.48689	0.27407	-0.02468	0.81338	0.22022	0.12423	0.68318	0.24290 
2263	18.850	0.00254	0.48682	0.27391	-0.02485	0.81332	0.22024	0.12386	0.68347	0.24273 
2264	18.858	0.00270	0.48673	0.27373	-0.02501	0.81326	0.22025	0.12348	0.68376	0.24257 
2265	18.867	0.00288	0.48667	0.27358	-0.02514	0.81320	0.22025	0.12310	0.68406	0.24240 
2266	18.875	0.00309	0.48664	0.27347	-0.02526	0.81314	0.22025	0.12274	0.68435	0.24224 
2267	18.883	0.00331	0.48665	0.27339	-0.02535	0.81309	0.22025	0.12239	0.68464	0.24208 
2268	18.892	0.00355	0.48668	0.27335	-0.02542	0.81303	0.22023	0.12206	0.68492	0.24191 
2269	18.900	0.00380	0.48671	0.27331	-0.02548	0.81299	0.22021	0.12174	0.68520	0.24173 
2270	18.908	0.00404	0.48672	0.27324	-0.02551	0.81294	0.22019	0.12145	0.68546	0.24154 
2271	18.917	0.00428	0.48674	0.27317	-0.02553	0.81290	0.22015	0.12118	0.68572	0.24135 
2272	18.925	0.00454	0.48676	0.27312	-0.02554	0.81286	0.22012	0.12092	0.68597	0.24115 
2273	18.933	0.00480	0.48680	0.27308	-0.02553	0.81282	0.22008	0.12067	0.68622	0.24094 
2274	18.942	0.00507	0.48684	0.27305	-0.02552	0.81279	0.22004	0.12044	0.68646	0.24073 
2275	18.950	0.00534	0.48688	0.27302	-0.02551	0.81276	0.22000	0.12022	0.68670	0.24051 
2276	18.958	0.00562	0.48693	0.27300	-0.02549	0.81273	0.21995	0.12001	0.68694	0.24029 
2277	18.967	0.00589	0.48698	0.27298	-0.02547	0.81271	0.21991	0.11980	0.68718	0.24007 
2278	18.975	0.00616	0.48703	0.27296	-0.02544	0.81269	0.21988	0.11959	0.68742	0.23985 
2279	18.983	0.00644	0.48709	0.27295	-0.02541	0.81267	0.21985	0.11939	0.68767	0.23964 
2280	18.992	0.00672	0.48715	0.27295	-0.02537	0.81266	0.21982	0.11920	0.68791	0.23944 
2281	19.000	0.00701	0.48722	0.27295	-0.02532	0.81266	0.21979	0.11901	0.68816	0.23924 
2282	19.008	0.00730	0.48730	0.27296	-0.02526	0.81266	0.21977	0.11883	0.68841	0.23906 
2283	19.017	0.00759	0.48739	0.27299	-0.02518	0.81267	0.21975	0.11865	0.68867	0.23889 
2284	19.025	0.00788	0.48749	0.27304	-0.02508	0.81269	0.21974	0.11849	0.68893	0.23873 
2285	19.033	0.00818	0.48760	0.27310	-0.02497	0.81272	0.21972	0.11833	0.68919	0.23860 
2286	19.042	0.00847	0.48773	0.27318	-0.02484	0.81276	0.21971	0.11818	0.68946	0.23848 
2287	19.050	0.00875	0.48786	0.27327	-0.02470	0.81281	0.21969	0.11803	0.68974	0.23839 
2288	19.058	0.00902	0.48801	0.27338	-0.02454	0.81286	0.21967	0.11789	0.69003	0.23832 
2289	19.067	0.00927	0.48818	0.27351	-0.02437	0.81293	0.21964	0.11774	0.69032	0.23827 
2290	19.075	0.00951	0.48835	0.27364	-0.02419	0.81301	0.21962	0.11759	0.69061	0.23823 
2291	19.083	0.00973	0.48854	0.27379	-0.02401	0.81309	0.21959	0.11744	0.69090	0.23822 
2292	19.092	0.00993	0.48874	0.27394	-0.02383	0.81318	0.21956	0.11728	0.69119	0.23822 
2293	19.100	0.01010	0.48894	0.27409	-0.02365	0.81327	0.21953	0.11711	0.69148	0.23824 
2294	19.108	0.01027	0.48914	0.27424	-0.02346	0.81337	0.21949	0.11695	0.69175	0.23828 
2295	19.117	0.01041	0.48934	0.27439	-0.02328	0.81347	0.21946	0.11679	0.69202	0.23834 
2296	19.125	0.01054	0.48953	0.27455	-0.02310	0.81357	0.21943	0.11665	0.69228	0.23843 
2297	19.133	0.01066	0.48973	0.27470	-0.02293	0.81367	0.21940	0.11651	0.69252	0.23853 
2298	19.142	0.01078	0.48991	0.27486	-0.02276	0.81376	0.21938	0.11640	0.69275	0.23865 
2299	19.150	0.01089	0.49009	0.27501	-0.02260	0.81384	0.21937	0.11632	0.69296	0.23879 
2300	19.158	0.01099	0.49025	0.27516	-0.02245	0.81392	0.21936	0.11626	0.69314	0.23893 
2301	19.167	0.01110	0.49041	0.27531	-0.02232	0.81400	0.21936	0.11623	0.69331	0.23909 
2302	19.175	0.01120	0.49055	0.27546	-0.02219	0.81406	0.21937	0.11624	0.69345	0.23924 
2303	19.183	0.01129	0.49069	0.27560	-0.02206	0.81412	0.21939	0.11629	0.69357	0.23940 
2304	19.192	0.01139	0.49082	0.27575	-0.02195	0.81418	0.21941	0.11636	0.69366	0.23954 
2305	19.200	0.01148	0.49093	0.27589	-0.02183	0.81423	0.21944	0.11647	0.69373	0.23968 
2306	19.208	0.01157	0.49104	0.27603	-0.02172	0.81427	0.21948	0.11659	0.69377	0.23981 
2307	19.217	0.01166	0.49114	0.27617	-0.02160	0.81431	0.21953	0.11674	0.69380	0.23993 
2308	19.225	0.01174	0.49124	0.27631	-0.02148	0.81435	0.21958	0.11689	0.69381	0.24004 
2309	19.233	0.01181	0.49132	0.27645	-0.02135	0.81439	0.21963	0.11704	0.69380	0.24014 
2310	19.242	0.01187	0.49141	0.27657	-0.02121	0.81442	0.21968	0.11718	0.69379	0.24024 
2311	19.250	0.01192	0.49148	0.27670	-0.02107	0.81445	0.21973	0.11731	0.69377	0.24032 
2312	19.258	0.01196	0.49155	0.27681	-0.02092	0.81449	0.21978	0.11742	0.69375	0.24040 
2313	19.267	0.01198	0.49162	0.27691	-0.02077	0.81452	0.21983	0.11752	0.69373	0.24048 
2314	19.275	0.01198	0.49168	0.27700	-0.02062	0.81455	0.21988	0.11761	0.69370	0.24056 
2315	19.283	0.01198	0.49174	0.27707	-0.02048	0.81458	0.21992	0.11768	0.69368	0.24063 
2316	19.292	0.01197	0.49181	0.27713	-0.02033	0.81461	0.21995	0.11774	0.69367	0.24070 
2317	19.300	0.01196	0.49187	0.27717	-0.02020	0.81464	0.21999	0.11780	0.69366	0.24077 
2318	19.308	0.01195	0.49193	0.27720	-0.02007	0.81468	0.22002	0.11785	0.69366	0.24084 
2319	19.317	0.01194	0.49200	0.27723	-0.01994	0.81472	0.22005	0.11789	0.69366	0.24091 
2320	19.325	0.01194	0.49207	0.27725	-0.01981	0.81476	0.22009	0.11794	0.69366	0.24097 
2321	19.333	0.01195	0.49214	0.27726	-0.01969	0.81480	0.22012	0.11799	0.69367	0.24103 
2322	19.342	0.01196	0.49222	0.27727	-0.01955	0.81485	0.22015	0.11803	0.69368	0.24110 
2323	19.350	0.01198	0.49230	0.27728	-0.01941	0.81490	0.22018	0.11807	0.69370	0.24116 
2324	19.358	0.01200	0.49240	0.27730	-0.01926	0.81496	0.22022	0.11810	0.69373	0.24123 
2325	19.367	0.01203	0.49249	0.27732	-0.01910	0.81501	0.22025	0.11813	0.69377	0.24131 
2326	19.375	0.01207	0.49260	0.27735	-0.01893	0.81507	0.22029	0.11816	0.69382	0.24138 
2327	19.383	0.01212	0.49270	0.27738	-0.01874	0.81513	0.22033	0.11820	0.69387	0.24146 
2328	19.392	0.01218	0.49281	0.27743	-0.01856	0.81519	0.22036	0.11823	0.69392	0.24154 
2329	19.400	0.01224	0.49292	0.27748	-0.01837	0.81524	0.22040	0.11828	0.69398	0.24162 
2330	19.408	0.01231	0.49303	0.27754	-0.01818	0.81529	0.22043	0.11834	0.69404	0.24170 
2331	19.417	0.01239	0.49315	0.27761	-0.01799	0.81534	0.22047	0.11841	0.69409	0.24178 
2332	19.425	0.01248	0.49328	0.27769	-0.01781	0.81539	0.22050	0.11849	0.69415	0.24186 
2333	19.433	0.01258	0.49340	0.27778	-0.01763	0.81542	0.22053	0.11859	0.69420	0.24194 
2334	19.442	0.01270	0.49353	0.27787	-0.01745	0.81546	0.22056	0.11870	0.69424	0.24202 
2335	19.450	0.01283	0.49365	0.27797	-0.01727	0.81548	0.22059	0.11883	0.69427	0.24209 
2336	19.458	0.01297	0.49377	0.27808	-0.01709	0.81551	0.22061	0.11896	0.69430	0.24216 
2337	19.467	0.01313	0.49389	0.27819	-0.01690	0.81553	0.22064	0.11911	0.69433	0.24223 
2338	19.475	0.01328	0.49400	0.27830	-0.01670	0.81555	0.22065	0.11925	0.69436	0.24230 
2339	19.483	0.01343	0.49411	0.27840	-0.01651	0.81558	0.22067	0.11939	0.69438	0.24236 
